<svg width="600" height="800" viewBox="0 0 600 800" xmlns="http://www.w3.org/2000/svg">
  <defs>
    <style>
      @import url('https://fonts.googleapis.com/css2?family=Montserrat:wght@300&family=Playfair+Display:wght@700&display=swap');
      .cls-1 { fill: #6B3FB5; } /* Violet Primaire */
      .cls-2 { fill: #D4AF37; } /* Doré Accent */
      .cls-3 { font-family: 'Playfair Display', serif; font-weight: 700; font-size: 140px; fill: #1F1F1F; }
      .cls-4 { font-family: 'Montserrat', sans-serif; font-weight: 300; font-size: 24px; letter-spacing: 4px; fill: #1F1F1F; text-transform: uppercase;}
    </style>
  </defs>

  <g transform="translate(150, 100)">
    <path class="cls-1" d="M150,300 C80,300 20,240 20,150 C20,100 50,50 100,20 C110,15 120,40 110,60 C80,100 80,200 150,240 L150,300 Z" />
    
    <path class="cls-1" d="M150,300 C220,300 280,240 280,150 C280,100 250,50 200,20 C190,15 180,40 190,60 C220,100 220,200 150,240 L150,300 Z" />
    
    <path class="cls-1" d="M140,300 L160,300 L150,180 Z" />

    <path class="cls-2" d="M150,0 L180,50 L150,80 L120,50 Z" />
    
    <circle cx="150" cy="40" r="5" class="cls-2" />
  </g>

  <text x="300" y="550" text-anchor="middle" class="cls-3">JIP</text>
  
  <text x="300" y="600" text-anchor="middle" class="cls-4">Journée Internationale</text>
  <text x="300" y="630" text-anchor="middle" class="cls-4">des Pasteurs</text>
</svg>