<!-- <svg width="600" height="800" viewBox="0 0 600 800" xmlns="http://www.w3.org/2000/svg">
<defs>
<style>
.cls-1{fill:#6b3fb5}.cls-2{fill:#d4af37}.cls-4{font-family:&amp;apos;font-weight:300;font-size:24px;letter-spacing:4px;fill:#1f1f1f;text-transform:uppercase}
</style>
</defs>
<path class="cls-1" d="M300 400c-70 0-130-60-130-150 0-50 30-100 80-130 10-5 20 20 10 40-30 40-30 140 40 180zm0 0c70 0 130-60 130-150 0-50-30-100-80-130-10-5-20 20-10 40 30 40 30 140-40 180z"/>
<path class="cls-1" d="M290 400h20l-10-120Z"/>
<path class="cls-2" d="m300 100 30 50-30 30-30-30Z"/>
<path class="cls-2" d="M305 140a5 5 0 0 1-5 5 5 5 0 0 1-5-5 5 5 0 0 1 10 0"/>
<text x="300" y="550" text-anchor="middle" style="font-family:&amp;apos;font-weight:700;font-size:140px;fill:#1f1f1f">JIP</text>
<text x="300" y="600" text-anchor="middle" class="cls-4">Journée Internationale</text><text x="300" y="630" text-anchor="middle" class="cls-4">des Pasteurs</text>
</svg> -->
<svg width="400" height="400" viewBox="0 0 600 600" xmlns="http://www.w3.org/2000/svg">
  <defs>
    <style>
      .gold{fill:#d4af37}
    </style>
  </defs>
  <path d="M300 240q40-60 100 20-20-90-100-80-80-10-100 80 60-80 100-20" style="fill:#6b3fb5;opacity:.9"/>
  <path class="gold" d="M330 140a30 10 0 0 1-30 10 30 10 0 0 1-30-10 30 10 0 0 1 60 0"/>
  <path class="gold" d="M274 140a4 4 0 0 1-4 4 4 4 0 0 1-4-4 4 4 0 0 1 8 0m30-10a4 4 0 0 1-4 4 4 4 0 0 1-4-4 4 4 0 0 1 8 0m30 10a4 4 0 0 1-4 4 4 4 0 0 1-4-4 4 4 0 0 1 8 0"/>
  <path stroke="#d4af37" stroke-width="3" fill="none" opacity=".28" d="M378 210a78 78 0 0 1-78 78 78 78 0 0 1-78-78 78 78 0 0 1 156 0z"/>
  <text x="300" y="390" text-anchor="middle" style="font-family:&amp;apos;font-size:110px;font-weight:700;fill:#1f1f1f;letter-spacing:8px">JIP</text>
  <text x="300" y="440" text-anchor="middle" style="font-family:&amp;apos;font-size:28px;font-weight:300;letter-spacing:2px;fill:#6b3fb5;text-transform:uppercase">Journée Internationale des Pasteurs</text>
</svg>
